<svg xmlns="http://www.w3.org/2000/svg" width="1200" height="1200" viewBox="0 0 1200 1200">
  <defs>
    <linearGradient id="bg" x1="0" y1="0" x2="1" y2="1">
      <stop offset="0%" stop-color="#ffffff"/>
      <stop offset="100%" stop-color="#e8f7ff"/>
    </linearGradient>
  </defs>
  <rect width="1200" height="1200" rx="80" fill="url(#bg)"/>
  <rect x="140" y="140" width="920" height="920" rx="70" fill="#111827"/>
  <rect x="180" y="180" width="840" height="840" rx="52" fill="#f8fafc"/>
  <rect x="240" y="240" width="300" height="300" fill="#000"/>
  <rect x="660" y="240" width="220" height="220" fill="#000"/>
  <rect x="240" y="660" width="220" height="220" fill="#000"/>
  <rect x="660" y="660" width="300" height="300" fill="#000"/>
  <g fill="#0f172a">
    <rect x="500" y="360" width="80" height="80" rx="12"/>
    <rect x="620" y="500" width="100" height="100" rx="12"/>
    <rect x="420" y="620" width="140" height="140" rx="12"/>
    <rect x="680" y="740" width="60" height="60" rx="10"/>
  </g>
  <rect x="380" y="980" width="440" height="120" rx="60" fill="#0f172a"/>
  <text x="600" y="1045" font-family="Inter, sans-serif" font-size="70" font-weight="700" fill="#ffffff" text-anchor="middle">GPay</text>
  <text x="600" y="1120" font-family="Inter, sans-serif" font-size="38" fill="#e2e8f0" text-anchor="middle">Scan to pay with any UPI app</text>
</svg>
