<svg xmlns="http://www.w3.org/2000/svg" width="1200" height="1200" viewBox="0 0 1200 1200">
  <rect width="1200" height="1200" rx="100" fill="#f8fafc" />
  <rect x="120" y="120" width="960" height="960" rx="80" fill="#ffffff" stroke="#d1d5db" stroke-width="2" />

  <g fill="#000">
    <rect x="180" y="180" width="250" height="250" rx="44" />
    <rect x="180" y="720" width="250" height="250" rx="44" />
    <rect x="770" y="180" width="250" height="250" rx="44" />
    <rect x="770" y="720" width="250" height="250" rx="44" />

    <rect x="435" y="435" width="70" height="70" rx="14" />
    <rect x="525" y="435" width="70" height="70" rx="14" />
    <rect x="615" y="435" width="70" height="70" rx="14" />
    <rect x="435" y="525" width="70" height="70" rx="14" />
    <rect x="615" y="525" width="70" height="70" rx="14" />
    <rect x="435" y="615" width="70" height="70" rx="14" />
    <rect x="525" y="615" width="70" height="70" rx="14" />
    <rect x="615" y="615" width="70" height="70" rx="14" />

    <rect x="520" y="245" width="120" height="120" rx="24" />
    <rect x="520" y="835" width="120" height="120" rx="24" />
    <rect x="245" y="520" width="120" height="120" rx="24" />
    <rect x="835" y="520" width="120" height="120" rx="24" />
  </g>

  <rect x="320" y="320" width="560" height="560" rx="80" fill="#ffffff" />
  <g transform="translate(500 420)">
    <circle cx="100" cy="100" r="90" fill="#0f172a" />
    <path d="M82 30 C102 10, 136 6, 160 26 C182 44, 188 78, 165 98 C140 122, 102 146, 82 118 C64 94, 64 60, 82 30 Z" fill="#34a853" />
    <path d="M90 16 C76 42, 100 62, 128 50 C154 40, 168 18, 148 10 C128 2, 106 8, 90 16 Z" fill="#4285f4" />
    <path d="M80 136 C108 130, 130 96, 108 74 C86 52, 52 64, 56 94 C60 122, 70 140, 80 136 Z" fill="#fbbc05" />
    <circle cx="100" cy="100" r="18" fill="#ffffff" />
  </g>

  <rect x="220" y="960" width="760" height="120" rx="60" fill="#111827" />
  <text x="600" y="1038" font-family="Inter, system-ui, sans-serif" font-size="52" font-weight="700" fill="#ffffff" text-anchor="middle">
    UPI ID: ranjithars@okicici
  </text>
</svg>
