<svg xmlns="http://www.w3.org/2000/svg" width="1200" height="1200" viewBox="0 0 1200 1200">
  <defs>
    <linearGradient id="bg" x1="0" y1="0" x2="1" y2="1">
      <stop offset="0%" stop-color="#eef4fb" />
      <stop offset="100%" stop-color="#ffffff" />
    </linearGradient>
    <linearGradient id="cardGlow" x1="0" y1="0" x2="1" y2="1">
      <stop offset="0%" stop-color="#60a5fa" stop-opacity="0.2" />
      <stop offset="100%" stop-color="#38bdf8" stop-opacity="0" />
    </linearGradient>
  </defs>

  <rect width="1200" height="1200" rx="100" fill="url(#bg)" />
  <rect x="120" y="160" width="960" height="880" rx="80" fill="#f8fafc" />
  <rect x="120" y="160" width="960" height="880" rx="80" fill="url(#cardGlow)" />
  <rect x="180" y="220" width="840" height="780" rx="64" fill="#ffffff" stroke="#d1d5db" stroke-width="2" />

  <g transform="translate(240 260)">
    <rect width="210" height="210" rx="32" fill="#000" />
    <rect x="570" width="210" height="210" rx="32" fill="#000" />
    <rect y="570" width="210" height="210" rx="32" fill="#000" />
    <rect x="570" y="570" width="210" height="210" rx="32" fill="#000" />

    <g fill="#000">
      <rect x="296" y="0" width="70" height="70" rx="16" />
      <rect x="386" y="0" width="70" height="70" rx="16" />
      <rect x="486" y="0" width="70" height="70" rx="16" />
      <rect x="296" y="90" width="70" height="70" rx="16" />
      <rect x="486" y="90" width="70" height="70" rx="16" />
      <rect x="236" y="180" width="70" height="70" rx="16" />
      <rect x="336" y="180" width="70" height="70" rx="16" />
      <rect x="536" y="180" width="70" height="70" rx="16" />
      <rect x="676" y="180" width="70" height="70" rx="16" />
      <rect x="296" y="270" width="70" height="70" rx="16" />
      <rect x="386" y="270" width="70" height="70" rx="16" />
      <rect x="486" y="270" width="70" height="70" rx="16" />
      <rect x="596" y="270" width="70" height="70" rx="16" />
      <rect x="226" y="360" width="70" height="70" rx="16" />
      <rect x="316" y="360" width="70" height="70" rx="16" />
      <rect x="426" y="360" width="70" height="70" rx="16" />
      <rect x="566" y="360" width="70" height="70" rx="16" />
      <rect x="676" y="360" width="70" height="70" rx="16" />
      <rect x="296" y="450" width="70" height="70" rx="16" />
      <rect x="386" y="450" width="70" height="70" rx="16" />
    </g>

    <rect x="260" y="260" width="420" height="420" rx="48" fill="#ffffff" />
    <rect x="295" y="295" width="350" height="350" rx="44" fill="#f8fafc" />
    <g transform="translate(345 325)">
      <circle cx="95" cy="95" r="80" fill="#0f172a" />
      <path d="M15 70 C33 20, 95 0, 130 28 C160 50, 165 95, 130 118 C95 142, 35 132, 15 90 Z" fill="#34a853" />
      <path d="M95 18 C75 42, 110 54, 135 42 C160 30, 175 4, 150 0 C125 -4, 110 14, 95 18 Z" fill="#4285f4" />
      <path d="M80 118 C120 102, 140 60, 110 38 C80 18, 38 36, 50 80 C62 125, 70 135, 80 118 Z" fill="#fbbc05" />
      <circle cx="97" cy="98" r="18" fill="#ffffff" />
    </g>
  </g>

  <text x="600" y="1020" font-family="Inter, system-ui, sans-serif" font-size="60" font-weight="600" fill="#0f172a" text-anchor="middle">
    UPI ID: ranjithars@okicici
  </text>
  <text x="600" y="1090" font-family="Inter, system-ui, sans-serif" font-size="38" fill="#6b7280" text-anchor="middle">
    Scan to pay with any UPI app
  </text>
</svg>
